<?xml version="1.0" encoding="UTF-8" standalone="no"?>
<!-- Created with Inkscape (http://www.inkscape.org/) -->

<svg
   xmlns:dc="http://purl.org/dc/elements/1.1/"
   xmlns:cc="http://creativecommons.org/ns#"
   xmlns:rdf="http://www.w3.org/1999/02/22-rdf-syntax-ns#"
   xmlns:svg="http://www.w3.org/2000/svg"
   xmlns="http://www.w3.org/2000/svg"
   xmlns:sodipodi="http://sodipodi.sourceforge.net/DTD/sodipodi-0.dtd"
   xmlns:inkscape="http://www.inkscape.org/namespaces/inkscape"
   id="svg2"
   version="1.1"
   inkscape:version="0.91 r13725"
   width="167.71594"
   height="176.03052"
   viewBox="0 0 167.71594 176.03052"
   sodipodi:docname="70-2016-11-16 05-31-09pm.svg">
  <metadata
     id="metadata8">
    <rdf:RDF>
      <cc:Work
         rdf:about="">
        <dc:format>image/svg+xml</dc:format>
        <dc:type
           rdf:resource="http://purl.org/dc/dcmitype/StillImage" />
        <dc:title></dc:title>
      </cc:Work>
    </rdf:RDF>
  </metadata>
  <defs
     id="defs6">
    <inkscape:path-effect
       effect="powerstroke"
       id="path-effect4179"
       is_visible="true"
       offset_points="0,0.5"
       sort_points="true"
       interpolator_type="Linear"
       interpolator_beta="0.2"
       start_linecap_type="zerowidth"
       linejoin_type="round"
       miter_limit="4"
       end_linecap_type="zerowidth"
       cusp_linecap_type="round" />
  </defs>
  <sodipodi:namedview
     pagecolor="#ffffff"
     bordercolor="#666666"
     borderopacity="1"
     objecttolerance="10"
     gridtolerance="10"
     guidetolerance="10"
     inkscape:pageopacity="0"
     inkscape:pageshadow="2"
     inkscape:window-width="1366"
     inkscape:window-height="705"
     id="namedview4"
     showgrid="false"
     inkscape:zoom="1.7623995"
     inkscape:cx="91.91477"
     inkscape:cy="84.159976"
     inkscape:window-x="-8"
     inkscape:window-y="-8"
     inkscape:window-maximized="1"
     inkscape:current-layer="svg2"
     showguides="false"
     inkscape:snap-intersection-paths="true"
     inkscape:object-paths="true"
     inkscape:object-nodes="true"
     inkscape:snap-smooth-nodes="true"
     inkscape:snap-midpoints="true"
     inkscape:snap-page="true"
     fit-margin-top="0"
     fit-margin-left="0"
     fit-margin-right="0"
     fit-margin-bottom="0" />
  <path
     style="fill:none;fill-rule:evenodd;stroke:#000000;stroke-width:1px;stroke-linecap:butt;stroke-linejoin:miter;stroke-opacity:1"
     d="m 67.712462,175.05477 0,-121.167901 -65.9538098,-33.500677 0.0455,107.244868 z"
     id="path4144"
     inkscape:connector-curvature="0"
     sodipodi:nodetypes="ccccc"
     inkscape:export-xdpi="107.36774"
     inkscape:export-ydpi="107.36774" />
  <path
     style="fill:none;fill-rule:evenodd;stroke:#000000;stroke-width:1px;stroke-linecap:butt;stroke-linejoin:miter;stroke-opacity:1"
     d="M 167.21458,147.37071 67.699922,175.10493 67.732452,53.880263 1.5093722,20.208877 99.408703,0.5248461 166.81336,35.430831 Z"
     id="path4146"
     inkscape:connector-curvature="0"
     sodipodi:nodetypes="ccccccc"
     inkscape:export-xdpi="107.36774"
     inkscape:export-ydpi="107.36774" />
  <path
     style="fill:none;fill-rule:evenodd;stroke:#000000;stroke-width:1px;stroke-linecap:butt;stroke-linejoin:miter;stroke-opacity:1"
     d="M 67.590602,54.066444 166.81336,35.430831"
     id="path4148"
     inkscape:connector-curvature="0"
     sodipodi:nodetypes="cc"
     inkscape:export-xdpi="107.36774"
     inkscape:export-ydpi="107.36774" />
  <circle
     style="opacity:1;fill:none;fill-opacity:1;stroke:#000000;stroke-width:1;stroke-linejoin:miter;stroke-miterlimit:4;stroke-dasharray:none;stroke-dashoffset:0;stroke-opacity:1"
     id="path4232"
     cy="-126.64512"
     cx="167.3654"
     r="44.825253" />
  <circle
     style="opacity:1;fill:none;fill-opacity:1;stroke:#000000;stroke-width:1;stroke-linejoin:miter;stroke-miterlimit:4;stroke-dasharray:none;stroke-dashoffset:0;stroke-opacity:1"
     id="path4232-5"
     cy="-135.72365"
     cx="196.87064"
     r="0" />
  <circle
     style="opacity:1;fill:none;fill-opacity:1;stroke:#000000;stroke-width:1;stroke-linejoin:miter;stroke-miterlimit:4;stroke-dasharray:none;stroke-dashoffset:0;stroke-opacity:1"
     id="path4232-4"
     cy="-271.20111"
     cx="-141.39774"
     r="44.825253"
     transform="matrix(0,1,-1,0,0,0)" />
  <path
     style="fill:none;fill-rule:evenodd;stroke:#000000;stroke-width:1px;stroke-linecap:butt;stroke-linejoin:miter;stroke-opacity:1"
     d="m 35.954412,37.87565 c 29.32646,-12.693372 18.4205,-27.820115 18.4205,-27.820115"
     id="path4313"
     inkscape:connector-curvature="0"
     sodipodi:nodetypes="cc"
     inkscape:export-xdpi="107.36774"
     inkscape:export-ydpi="107.36774" />
  <path
     style="fill:none;fill-rule:evenodd;stroke:#000000;stroke-width:1px;stroke-linecap:butt;stroke-linejoin:miter;stroke-opacity:1"
     d="m 117.20198,44.748637 c 0,0 -12.26106,-12.626894 9.79984,-28.580473"
     id="path4315"
     inkscape:connector-curvature="0"
     sodipodi:nodetypes="cc"
     inkscape:export-xdpi="107.36774"
     inkscape:export-ydpi="107.36774" />
  <path
     style="fill:none;fill-rule:evenodd;stroke:#000000;stroke-width:1px;stroke-linecap:butt;stroke-linejoin:miter;stroke-opacity:1"
     d="m 128.21644,15.443138 c 0,0 -37.728088,23.696305 -74.294658,-5.7725103"
     id="path4317"
     inkscape:connector-curvature="0"
     sodipodi:nodetypes="cc"
     inkscape:export-xdpi="107.36774"
     inkscape:export-ydpi="107.36774" />
  <path
     style="fill:none;fill-rule:evenodd;stroke:#000000;stroke-width:1px;stroke-linecap:butt;stroke-linejoin:miter;stroke-opacity:1"
     d="m 35.954412,37.87565 c 0,0 49.8646,-22.568154 81.247568,6.872987"
     id="path4319"
     inkscape:connector-curvature="0"
     inkscape:export-xdpi="107.36774"
     inkscape:export-ydpi="107.36774" />
  <path
     style="fill:none;fill-rule:evenodd;stroke:#000000;stroke-width:1px;stroke-linecap:butt;stroke-linejoin:miter;stroke-opacity:1"
     d="m 1.4489022,78.126172 c 0,0 28.8314298,-4.787506 34.5055098,-40.250522"
     id="path4321"
     inkscape:connector-curvature="0"
     sodipodi:nodetypes="cc"
     inkscape:export-xdpi="107.36774"
     inkscape:export-ydpi="107.36774" />
  <path
     style="fill:none;fill-rule:evenodd;stroke:#000000;stroke-width:1px;stroke-linecap:butt;stroke-linejoin:miter;stroke-opacity:1"
     d="m 67.445572,112.77354 c 0,0 57.240908,-7.53184 49.756408,-68.024902"
     id="path4323"
     inkscape:connector-curvature="0"
     inkscape:export-xdpi="107.36774"
     inkscape:export-ydpi="107.36774" />
  <path
     style="fill:none;fill-rule:evenodd;stroke:#000000;stroke-width:1px;stroke-linecap:butt;stroke-linejoin:miter;stroke-opacity:1"
     d="m 117.20198,44.748637 c 8.05191,47.442674 48.68892,46.463389 48.68892,46.463389 0,0 -51.63415,15.603724 -44.82525,68.372694"
     id="path4325"
     inkscape:connector-curvature="0"
     inkscape:export-xdpi="107.36774"
     inkscape:export-ydpi="107.36774" />
  <path
     style="fill:none;fill-rule:evenodd;stroke:#000000;stroke-width:1px;stroke-linecap:butt;stroke-linejoin:miter;stroke-opacity:1"
     d="m 67.445572,112.77354 c 0,0 42.226808,-10.68814 53.574968,47.47121"
     id="path4327"
     inkscape:connector-curvature="0"
     sodipodi:nodetypes="cc"
     inkscape:export-xdpi="107.36774"
     inkscape:export-ydpi="107.36774" />
  <path
     style="fill:none;fill-rule:evenodd;stroke:#000000;stroke-width:1px;stroke-linecap:butt;stroke-linejoin:miter;stroke-opacity:1"
     d="m 35.954412,37.87565 c -15.32002,54.471191 31.49116,74.89789 31.49116,74.89789 C 30.321282,101.62927 28.987932,147.1909 28.987932,147.1909 32.676092,87.329321 1.5020922,78.729044 1.5020922,78.729044 c 0,0 39.5192648,-2.324199 50.1930048,30.571226"
     id="path4331"
     inkscape:connector-curvature="0"
     sodipodi:nodetypes="ccccc"
     inkscape:export-xdpi="107.36774"
     inkscape:export-ydpi="107.36774" />
  <path
     style="fill:none;fill-rule:evenodd;stroke:#000000;stroke-width:1px;stroke-linecap:butt;stroke-linejoin:miter;stroke-opacity:1"
     d="m 33.808662,69.628362 c 0,0 -9.18289,10.248736 -32.4466298,8.830217"
     id="path4333"
     inkscape:connector-curvature="0"
     sodipodi:nodetypes="cc"
     inkscape:export-xdpi="107.36774"
     inkscape:export-ydpi="107.36774" />
  <path
     style="fill:none;fill-rule:evenodd;stroke:#000000;stroke-width:1px;stroke-linecap:butt;stroke-linejoin:miter;stroke-opacity:1"
     d="m 112.92802,80.149986 c 0,0 7.75549,8.40641 7.47179,25.704004"
     id="path4335"
     inkscape:connector-curvature="0"
     inkscape:export-xdpi="107.36774"
     inkscape:export-ydpi="107.36774"
     sodipodi:nodetypes="cc" />
  <path
     style="fill:none;fill-rule:evenodd;stroke:#000000;stroke-width:1px;stroke-linecap:butt;stroke-linejoin:miter;stroke-opacity:1"
     d="m 167.0133,91.212837 c 0,0 -43.39432,-1.419332 -58.99804,30.071823"
     id="path4337"
     inkscape:connector-curvature="0"
     sodipodi:nodetypes="cc"
     inkscape:export-xdpi="107.36774"
     inkscape:export-ydpi="107.36774" />
  <path
     style="fill:none;fill-rule:evenodd;stroke:#000000;stroke-width:1px;stroke-linecap:butt;stroke-linejoin:miter;stroke-opacity:1"
     d="m 117.77127,146.87592 c 0,0 -1.59695,-29.14479 -31.067998,-40.41841"
     id="path4339"
     inkscape:connector-curvature="0"
     inkscape:export-xdpi="107.36774"
     inkscape:export-ydpi="107.36774" />
  <path
     style="fill:none;fill-rule:evenodd;stroke:#000000;stroke-width:1px;stroke-linecap:butt;stroke-linejoin:miter;stroke-opacity:1"
     d="m 116.63754,68.42482 c 0,0 11.22722,19.54134 43.00698,23.008349"
     id="path4341"
     inkscape:connector-curvature="0"
     inkscape:export-xdpi="107.36774"
     inkscape:export-ydpi="107.36774" />
  <path
     style="fill:none;fill-rule:evenodd;stroke:#000000;stroke-width:1px;stroke-linecap:butt;stroke-linejoin:miter;stroke-opacity:1"
     d="m 56.084302,19.612877 c 0,0 3.07165,7.332171 8.63498,10.669691"
     id="path4343"
     inkscape:connector-curvature="0"
     sodipodi:nodetypes="cc"
     inkscape:export-xdpi="107.36774"
     inkscape:export-ydpi="107.36774" />
  <path
     style="fill:none;fill-rule:evenodd;stroke:#000000;stroke-width:1px;stroke-linecap:butt;stroke-linejoin:miter;stroke-opacity:1"
     d="m 54.754412,31.979522 c 0,0 2.87474,-2.108334 1.32989,-12.366645"
     id="path4345"
     inkscape:connector-curvature="0"
     sodipodi:nodetypes="cc"
     inkscape:export-xdpi="107.36774"
     inkscape:export-ydpi="107.36774" />
  <path
     style="fill:none;fill-rule:evenodd;stroke:#000000;stroke-width:1px;stroke-linecap:butt;stroke-linejoin:miter;stroke-opacity:1"
     d="m 58.526216,107.4561 c 0,0 -9.076157,0.56358 -17.346347,9.10655"
     id="path4386"
     inkscape:connector-curvature="0"
     inkscape:export-xdpi="107.36774"
     inkscape:export-ydpi="107.36774" />
  <path
     style="fill:none;fill-rule:evenodd;stroke:#000000;stroke-width:1px;stroke-linecap:butt;stroke-linejoin:miter;stroke-opacity:1"
     d="m 47.919319,97.449382 c 0,0 -0.516514,0.713024 -0.4087,2.695928"
     id="path4388"
     inkscape:connector-curvature="0"
     sodipodi:nodetypes="cc"
     inkscape:export-xdpi="107.36774"
     inkscape:export-ydpi="107.36774" />
  <path
     style="opacity:1;fill:#999999;fill-opacity:1;stroke:#000000;stroke-width:0;stroke-linejoin:miter;stroke-miterlimit:4;stroke-dasharray:none;stroke-dashoffset:0;stroke-opacity:1"
     d="m 119.08208,150.49974 c -0.51357,-1.78127 -0.98794,-4.01742 -1.05418,-4.96923 -0.15287,-2.19694 -1.77968,-8.56958 -2.91984,-11.43777 -1.66566,-4.19018 -4.28694,-9.00562 -6.31863,-11.60771 -0.44614,-0.57139 -0.70308,-1.08206 -0.57098,-1.13481 0.13211,-0.0528 0.7928,-1.05342 1.4682,-2.2237 7.53115,-13.04935 21.20174,-21.880017 39.72051,-25.657887 4.15648,-0.847933 9.62532,-1.580825 11.71732,-1.570267 l 1.47492,0.0074 -2.12778,0.940228 c -13.01976,5.753199 -23.80756,14.432576 -30.68136,24.684826 -6.40893,9.55888 -9.55952,19.90662 -9.69647,31.84686 -0.0275,2.39811 -0.0563,4.36032 -0.064,4.36045 -0.008,1.4e-4 -0.43416,-1.45715 -0.94772,-3.23843 z"
     id="path4396"
     inkscape:connector-curvature="0"
     inkscape:export-xdpi="107.36774"
     inkscape:export-ydpi="107.36774" />
  <path
     style="opacity:1;fill:#999999;fill-opacity:1;stroke:#000000;stroke-width:0;stroke-linejoin:miter;stroke-miterlimit:4;stroke-dasharray:none;stroke-dashoffset:0;stroke-opacity:1"
     d="m 116.07054,141.9001 c -1.79129,-4.76614 -6.07519,-11.88945 -9.65162,-16.04879 -6.736799,-7.83483 -16.856722,-13.15133 -26.608619,-13.97885 -0.965103,-0.0819 -2.329233,-0.22001 -3.031401,-0.30692 l -1.276668,-0.15803 2.978893,-1.05251 c 1.638391,-0.57888 4.175652,-1.58189 5.638357,-2.22892 l 2.659465,-1.1764 1.737949,0.72304 c 13.735434,5.71437 23.932214,17.80391 27.686414,32.82566 0.70035,2.80231 0.63861,3.45414 -0.13277,1.40172 z"
     id="path4398"
     inkscape:connector-curvature="0"
     inkscape:export-xdpi="107.36774"
     inkscape:export-ydpi="107.36774" />
  <path
     style="opacity:1;fill:#999999;fill-opacity:1;stroke:#000000;stroke-width:0;stroke-linejoin:miter;stroke-miterlimit:4;stroke-dasharray:none;stroke-dashoffset:0;stroke-opacity:1"
     d="m 105.18251,118.25049 c -4.02174,-4.32274 -9.874018,-8.53713 -14.99859,-10.80089 -1.13127,-0.49973 -2.053074,-0.98128 -2.048453,-1.07011 0.0046,-0.0888 1.381986,-0.96311 3.060811,-1.94284 8.963062,-5.230674 16.364752,-12.824527 20.665512,-21.202031 0.59916,-1.167111 1.15974,-2.122567 1.24572,-2.123237 0.32839,-0.0026 2.83565,4.492248 3.65002,6.543458 1.90786,4.805407 3.1444,10.918362 3.1444,15.54463 l 0,2.29905 -3.08563,3.05492 c -3.32947,3.29634 -5.69058,6.31427 -7.7966,9.9655 -0.73277,1.27039 -1.36079,2.30486 -1.3956,2.29883 -0.0348,-0.006 -1.13353,-1.16132 -2.44159,-2.56728 z"
     id="path4400"
     inkscape:connector-curvature="0"
     inkscape:export-xdpi="107.36774"
     inkscape:export-ydpi="107.36774" />
  <path
     style="opacity:1;fill:#999999;fill-opacity:1;stroke:#000000;stroke-width:0;stroke-linejoin:miter;stroke-miterlimit:4;stroke-dasharray:none;stroke-dashoffset:0;stroke-opacity:1"
     d="m 48.408488,111.42397 c 2.529321,-1.54829 7.606458,-3.36191 9.411474,-3.36191 0.703096,0 5.479418,2.79333 5.219964,3.05278 -0.05891,0.0589 -1.162834,-0.0473 -2.453165,-0.23593 -3.070922,-0.44903 -8.015399,-0.1839 -10.685236,0.57294 -2.569255,0.72834 -2.72371,0.72545 -1.493037,-0.0279 z"
     id="path4402"
     inkscape:connector-curvature="0"
     inkscape:export-xdpi="107.36774"
     inkscape:export-ydpi="107.36774" />
  <path
     style="opacity:1;fill:#999999;fill-opacity:1;stroke:#000000;stroke-width:0;stroke-linejoin:miter;stroke-miterlimit:4;stroke-dasharray:none;stroke-dashoffset:0;stroke-opacity:1"
     d="m 51.276733,106.86953 c -0.372931,-0.9825 -1.298516,-3.01144 -2.056855,-4.50876 -1.325891,-2.617935 -1.593844,-3.377245 -1.191797,-3.377245 0.10285,0 1.475269,1.250645 3.049819,2.779215 1.57455,1.52857 3.600287,3.3338 4.501637,4.01162 0.901351,0.67783 1.592166,1.27906 1.535145,1.33608 -0.05702,0.057 -1.049824,0.36534 -2.206228,0.68515 -1.156404,0.31982 -2.294053,0.64422 -2.528109,0.72089 -0.308393,0.10103 -0.612236,-0.3524 -1.103612,-1.64695 z"
     id="path4404"
     inkscape:connector-curvature="0"
     inkscape:export-xdpi="107.36774"
     inkscape:export-ydpi="107.36774" />
  <path
     style="opacity:1;fill:#999999;fill-opacity:1;stroke:#000000;stroke-width:0;stroke-linejoin:miter;stroke-miterlimit:4;stroke-dasharray:none;stroke-dashoffset:0;stroke-opacity:1"
     d="M 29.713554,134.85788 C 29.524853,118.45548 25.419427,102.85041 18.590387,92.577803 17.151129,90.412795 15.499232,88.450858 13.106762,86.064974 10.064366,83.030952 8.8717589,82.100193 5.0017566,79.739501 l -0.9929644,-0.605705 0.9929644,-0.0017 c 0.5461304,-9.59e-4 2.7473402,0.184447 4.8915777,0.412011 9.6085827,1.019742 18.4298917,4.008519 25.2689287,8.56145 3.540477,2.356992 8.078619,6.701262 10.395231,9.951146 1.851374,2.597217 4.986664,8.641437 5.29151,10.200987 0.164163,0.83983 0.09983,0.93704 -0.895316,1.35284 -3.625991,1.51503 -10.650679,7.60556 -13.461148,11.67105 -2.52253,3.64897 -4.379376,7.96272 -6.338505,14.72537 l -0.410943,1.41852 -0.02954,-2.56755 z"
     id="path4406"
     inkscape:connector-curvature="0"
     inkscape:export-xdpi="107.36774"
     inkscape:export-ydpi="107.36774" />
  <path
     style="opacity:1;fill:#999999;fill-opacity:1;stroke:#000000;stroke-width:0;stroke-linejoin:miter;stroke-miterlimit:4;stroke-dasharray:none;stroke-dashoffset:0;stroke-opacity:1"
     d="M 4.6491861,78.114932 C 4.5332909,77.996154 5.6329613,77.429138 7.092898,76.854897 17.830032,72.631633 26.110426,64.953547 31.17671,54.522919 l 1.486199,-3.059835 0.01133,7.234456 c 0.0067,4.284127 0.145884,7.92865 0.341271,8.93668 l 0.329942,1.702224 -1.186934,1.089617 c -3.63626,3.338122 -11.741695,6.440139 -18.92934,7.244414 -4.1723183,0.46687 -8.3471101,0.683131 -8.5799899,0.444457 z"
     id="path4408"
     inkscape:connector-curvature="0"
     inkscape:export-xdpi="107.36774"
     inkscape:export-ydpi="107.36774" />
  <path
     style="opacity:1;fill:#999999;fill-opacity:1;stroke:#000000;stroke-width:0;stroke-linejoin:miter;stroke-miterlimit:4;stroke-dasharray:none;stroke-dashoffset:0;stroke-opacity:1"
     d="m 46.43804,32.674925 c 3.402393,-2.306211 6.94671,-5.950378 8.353942,-8.589289 l 1.134665,-2.127781 0.08185,2.645634 c 0.0869,2.808659 -0.459908,5.738536 -1.229751,6.589203 -0.231158,0.255427 -1.152614,0.626245 -2.047681,0.824041 -0.895066,0.197796 -3.137689,0.792219 -4.983606,1.320941 -1.845916,0.528721 -3.434786,0.961311 -3.53082,0.961311 -0.09604,0 0.903594,-0.730827 2.221396,-1.62406 z"
     id="path4410"
     inkscape:connector-curvature="0"
     inkscape:export-xdpi="107.36774"
     inkscape:export-ydpi="107.36774" />
  <path
     style="opacity:1;fill:#999999;fill-opacity:1;stroke:#000000;stroke-width:0;stroke-linejoin:miter;stroke-miterlimit:4;stroke-dasharray:none;stroke-dashoffset:0;stroke-opacity:1"
     d="M 113.48328,41.015898 C 111.7373,39.55477 107.13232,36.721982 104.14751,35.272931 98.629562,32.594109 91.739061,30.609928 84.864468,29.720207 81.685094,29.308727 71.9047,29.216819 67.526139,29.557275 l -2.869417,0.223112 -1.459782,-1.153891 c -1.758819,-1.390266 -3.608879,-3.663391 -5.292344,-6.502579 -1.240958,-2.092891 -1.247289,-2.117379 -1.247005,-4.82297 1.64e-4,-1.555823 -0.174621,-3.296007 -0.40849,-4.066993 -0.224826,-0.741177 -0.367615,-1.347595 -0.317308,-1.347595 0.05031,0 1.091063,0.685699 2.312793,1.523775 8.378144,5.747197 17.36564,9.331397 27.18729,10.842251 3.765616,0.579261 13.26965,0.66644 16.880394,0.154841 6.11432,-0.866325 12.01975,-2.37864 17.39579,-4.454868 1.38624,-0.535368 2.59304,-0.973396 2.68177,-0.973396 0.0887,0 -0.73037,0.925585 -1.82023,2.056855 -2.74648,2.85086 -4.15431,4.810671 -5.46322,7.605253 -1.82348,3.893211 -2.18531,8.009936 -1.00358,11.4183 0.25991,0.749634 0.4104,1.425131 0.33443,1.501107 -0.076,0.07597 -0.50525,-0.169085 -0.95395,-0.544579 z"
     id="path4412"
     inkscape:connector-curvature="0"
     inkscape:export-xdpi="107.36774"
     inkscape:export-ydpi="107.36774" />
  <path
     style="opacity:1;fill:#999999;fill-opacity:1;stroke:#000000;stroke-width:0;stroke-linejoin:miter;stroke-miterlimit:4;stroke-dasharray:none;stroke-dashoffset:0;stroke-opacity:1"
     d="m 150.64256,89.482734 c -7.63406,-1.767295 -16.04621,-5.415503 -21.73976,-9.428165 -4.2242,-2.977103 -8.97337,-7.539601 -10.86134,-10.434421 l -0.92515,-1.41852 0.4045,-2.269633 c 0.22247,-1.248298 0.48472,-4.863328 0.58279,-8.033399 l 0.17829,-5.763766 1.23678,3.777837 c 2.24644,6.861908 6.0517,13.783239 10.39478,18.906889 5.65736,6.674149 14.49592,12.323146 23.14288,14.791341 2.64873,0.756055 1.03579,0.670413 -2.41377,-0.128163 z"
     id="path4414"
     inkscape:connector-curvature="0"
     inkscape:export-xdpi="107.36774"
     inkscape:export-ydpi="107.36774" />
</svg>
